<svg width="18" height="18" viewBox="0 0 18 18" fill="none" xmlns="http://www.w3.org/2000/svg">
<path fill-rule="evenodd" clip-rule="evenodd" d="M16.476 0.600098H1.52398C1.01366 0.600098 0.599976 1.01379 0.599976 1.5241V16.4761C0.599976 16.7212 0.697325 16.9562 0.870609 17.1295C1.04389 17.3027 1.27892 17.4001 1.52398 17.4001H9.57117V10.8901H7.38718V8.3701H9.57117V6.4801C9.4796 5.5819 9.78967 4.68915 10.4183 4.04108C11.0469 3.39302 11.9298 3.05591 12.8304 3.1201C13.4842 3.11607 14.1377 3.14973 14.7876 3.2209V5.4889H13.452C12.3936 5.4889 12.192 5.9929 12.192 6.7237V8.3449H14.712L14.3844 10.8649H12.192V17.4001H16.476C16.721 17.4001 16.9561 17.3027 17.1293 17.1295C17.3026 16.9562 17.4 16.7212 17.4 16.4761V1.5241C17.4 1.27904 17.3026 1.04401 17.1293 0.870731C16.9561 0.697447 16.721 0.600098 16.476 0.600098Z" fill="#919EAB"/>
</svg>
