<svg width="18" height="12" viewBox="0 0 18 12" fill="none" xmlns="http://www.w3.org/2000/svg">
<path fill-rule="evenodd" clip-rule="evenodd" d="M17.3961 4.22918C17.4339 3.1188 17.195 2.01673 16.7017 1.0253C16.367 0.618496 15.9024 0.343965 15.389 0.249548C13.2656 0.053689 11.1333 -0.0265871 9.00144 0.00906339C6.87731 -0.0282052 4.75273 0.0494803 2.63673 0.24179C2.21838 0.319146 1.83123 0.518613 1.52252 0.81585C0.83568 1.45973 0.759365 2.5613 0.683049 3.49221C0.572325 5.16595 0.572325 6.84537 0.683049 8.51911C0.705128 9.04306 0.781873 9.56314 0.911996 10.0706C1.00401 10.4624 1.19018 10.8249 1.45384 11.1256C1.76464 11.4386 2.16081 11.6494 2.59094 11.7307C4.23623 11.9372 5.89404 12.0227 7.55144 11.9867C10.2225 12.0255 12.5654 11.9867 15.3356 11.7695C15.7763 11.6932 16.1836 11.4821 16.5032 11.1644C16.7169 10.9472 16.8765 10.6812 16.9688 10.3887C17.2417 9.53738 17.3757 8.64642 17.3656 7.75111C17.3961 7.31669 17.3961 4.69463 17.3961 4.22918ZM7.27671 8.21656V3.41463L11.7946 5.82723C10.5277 6.54093 8.85644 7.34772 7.27671 8.21656Z" fill="#919EAB"/>
</svg>
