<svg width="20" height="20" viewBox="0 0 20 20" fill="none" xmlns="http://www.w3.org/2000/svg">
<path fill-rule="evenodd" clip-rule="evenodd" d="M18.4 4.76448C17.7686 5.03985 17.1009 5.22189 16.4176 5.30493C17.1384 4.872 17.6786 4.19092 17.938 3.38804C17.2606 3.79343 16.519 4.07905 15.7456 4.23248C14.6823 3.0733 12.9742 2.78279 11.5908 3.52584C10.2073 4.2689 9.49809 5.8578 9.86557 7.39071C7.09556 7.24986 4.51538 5.93299 2.76758 3.76804C2.46445 4.30018 2.30517 4.90282 2.30558 5.51604C2.30339 6.67269 2.87729 7.75364 3.83438 8.3956C3.28668 8.38061 2.75068 8.23287 2.27198 7.96493V8.00715C2.28044 9.65211 3.4391 11.064 5.04398 11.3849C4.74431 11.4766 4.43319 11.5249 4.11998 11.5285C3.90316 11.5259 3.68689 11.5062 3.47318 11.4694C3.9276 12.8763 5.21916 13.8391 6.69038 13.8676C5.47843 14.8263 3.98212 15.3495 2.43998 15.3538C2.15919 15.3547 1.87863 15.3378 1.59998 15.3032C3.1745 16.3251 5.00938 16.8677 6.88357 16.8654C9.4962 16.8926 12.0101 15.8631 13.8599 14.0082C15.7098 12.1533 16.7404 9.62877 16.72 7.00226C16.72 6.85871 16.72 6.70671 16.72 6.55471C17.3791 6.06055 17.9476 5.45475 18.4 4.76448Z" fill="#919EAB"/>
</svg>
