<svg width="40" height="40" viewBox="0 0 40 40" fill="none" xmlns="http://www.w3.org/2000/svg">
<path fill-rule="evenodd" clip-rule="evenodd" d="M36.8 25.0741C36.1509 24.2719 35.3328 23.612 34.4 23.1484V20C34.4 11.8262 28.1738 5.64841 20 5.64841C11.8262 5.64841 5.6 11.8262 5.6 20V23.1484C4.66717 23.612 3.84915 24.2719 3.2 25.0741V20C3.2 10.5007 10.5007 3.24841 20 3.24841C29.4993 3.24841 36.8 10.5007 36.8 20V25.0741ZM8.07076 24.047C8.02431 24.2909 8 24.5426 8 24.8V34.4C8 34.6574 8.02431 34.9091 8.07076 35.1529C5.32251 34.7955 3.2 32.4456 3.2 29.6C3.2 26.7543 5.32251 24.4044 8.07076 24.047ZM32 34.4C32 34.6574 31.9757 34.9091 31.9292 35.1529C34.6775 34.7955 36.8 32.4456 36.8 29.6C36.8 26.7543 34.6775 24.4044 31.9292 24.047C31.9757 24.2909 32 24.5426 32 24.8V34.4ZM12 22.4H13.6C14.9255 22.4 16 23.4745 16 24.8V34.4C16 35.7255 14.9255 36.8 13.6 36.8H12C10.6745 36.8 9.6 35.7255 9.6 34.4V24.8C9.6 23.4745 10.6745 22.4 12 22.4ZM28 22.4H26.4C25.0745 22.4 24 23.4745 24 24.8V34.4C24 35.7255 25.0745 36.8 26.4 36.8H28C29.3255 36.8 30.4 35.7255 30.4 34.4V24.8C30.4 23.4745 29.3255 22.4 28 22.4Z" fill="#5C6AC4"/>
</svg>
