<svg width="20" height="20" viewBox="0 0 20 20" fill="none" xmlns="http://www.w3.org/2000/svg">
<path fill-rule="evenodd" clip-rule="evenodd" d="M3.18705 5.02196L3.03504 3.77473C2.98029 3.246 2.52954 2.84392 1.99162 2.84392H1.42961C1.08187 2.84392 0.799988 2.56544 0.799988 2.22195C0.799988 1.87846 1.08187 1.59998 1.42961 1.59998H1.99162C3.17541 1.59998 4.16727 2.48474 4.28775 3.64814L4.40247 4.75584H17.1802C17.4444 4.75584 17.6428 4.99408 17.592 5.25018L16.4757 10.8742C16.2055 12.2357 14.9976 13.2178 13.5932 13.2178H6.90279C7.09575 14.0589 7.85663 14.6686 8.74417 14.6686H14.0138C14.0448 14.6686 14.0756 14.6709 14.0602 14.6736C14.1063 14.6703 14.1527 14.6686 14.1993 14.6686C15.2423 14.6686 16.0878 15.5039 16.0878 16.5343C16.0878 17.5647 15.2423 18.4 14.1993 18.4C13.1563 18.4 12.3108 17.5647 12.3108 16.5343C12.3108 16.3196 12.3476 16.11 12.4182 15.9126H10.1056C10.1762 16.11 10.213 16.3196 10.213 16.5343C10.213 17.5647 9.36755 18.4 8.32455 18.4C7.28155 18.4 6.43605 17.5647 6.43605 16.5343C6.43605 16.0799 6.60161 15.6517 6.89255 15.3179C6.17685 14.803 5.70473 14.0087 5.61319 13.1223L5.60352 13.0287C4.57883 12.6433 3.82258 11.7065 3.72184 10.5687L3.46809 7.70249C3.46381 7.68476 3.46066 7.66655 3.45873 7.64792L3.18705 5.02196ZM8.32455 17.3634C8.78805 17.3634 9.1638 16.9922 9.1638 16.5343C9.1638 16.0764 8.78805 15.7052 8.32455 15.7052C7.86104 15.7052 7.4853 16.0764 7.4853 16.5343C7.4853 16.9922 7.86104 17.3634 8.32455 17.3634ZM14.1993 17.3634C14.6628 17.3634 15.0385 16.9922 15.0385 16.5343C15.0385 16.0764 14.6628 15.7052 14.1993 15.7052C13.7358 15.7052 13.36 16.0764 13.36 16.5343C13.36 16.9922 13.7358 17.3634 14.1993 17.3634Z" fill="white"/>
</svg>
