<?xml version="1.0" encoding="UTF-8"?>
<!DOCTYPE svg PUBLIC "-//W3C//DTD SVG 1.1//EN" "http://www.w3.org/Graphics/SVG/1.1/DTD/svg11.dtd">
<svg xmlns="http://www.w3.org/2000/svg" version="1.1" width="120px" height="120px" style="shape-rendering:geometricPrecision; text-rendering:geometricPrecision; image-rendering:optimizeQuality; fill-rule:evenodd; clip-rule:evenodd" xmlns:xlink="http://www.w3.org/1999/xlink">
<g><path style="opacity:0.998" fill="#fefefe" d="M 3.5,-0.5 C 40.8333,-0.5 78.1667,-0.5 115.5,-0.5C 117.167,0.5 118.5,1.83333 119.5,3.5C 119.5,40.8333 119.5,78.1667 119.5,115.5C 118.5,117.167 117.167,118.5 115.5,119.5C 78.1667,119.5 40.8333,119.5 3.5,119.5C 1.83333,118.5 0.5,117.167 -0.5,115.5C -0.5,78.1667 -0.5,40.8333 -0.5,3.5C 0.5,1.83333 1.83333,0.5 3.5,-0.5 Z"/></g>
<g><path style="opacity:1" fill="#97a3b0" d="M 66.5,36.5 C 67.6491,36.7911 68.3158,37.6244 68.5,39C 67.5927,44.0746 64.5927,46.9079 59.5,47.5C 59.7611,42.5616 62.0945,38.895 66.5,36.5 Z"/></g>
<g><path style="opacity:1" fill="#929fac" d="M 49.5,47.5 C 52.9615,47.5664 56.2949,48.2331 59.5,49.5C 65.2379,46.5074 70.7379,46.8407 76,50.5C 74.0835,53.3812 72.9168,56.7145 72.5,60.5C 72.6667,61.8333 72.8333,63.1667 73,64.5C 74.3727,67.0144 75.8727,69.3477 77.5,71.5C 76.0491,75.5627 73.7158,79.0627 70.5,82C 67.0432,82.4442 63.7099,81.9442 60.5,80.5C 54.7247,83.9622 49.8914,82.9622 46,77.5C 41.8831,70.343 40.5498,62.6763 42,54.5C 43.7424,51.2543 46.2424,48.921 49.5,47.5 Z"/></g>
</svg>
