<?xml version="1.0" encoding="UTF-8"?>
<!DOCTYPE svg PUBLIC "-//W3C//DTD SVG 1.1//EN" "http://www.w3.org/Graphics/SVG/1.1/DTD/svg11.dtd">
<svg xmlns="http://www.w3.org/2000/svg" version="1.1" width="120px" height="120px" style="shape-rendering:geometricPrecision; text-rendering:geometricPrecision; image-rendering:optimizeQuality; fill-rule:evenodd; clip-rule:evenodd" xmlns:xlink="http://www.w3.org/1999/xlink">
<g><path style="opacity:0.998" fill="#fefefe" d="M 3.5,-0.5 C 40.8333,-0.5 78.1667,-0.5 115.5,-0.5C 117.167,0.5 118.5,1.83333 119.5,3.5C 119.5,40.8333 119.5,78.1667 119.5,115.5C 118.5,117.167 117.167,118.5 115.5,119.5C 78.1667,119.5 40.8333,119.5 3.5,119.5C 1.83333,118.5 0.5,117.167 -0.5,115.5C -0.5,78.1667 -0.5,40.8333 -0.5,3.5C 0.5,1.83333 1.83333,0.5 3.5,-0.5 Z"/></g>
<g><path style="opacity:1" fill="#95a1ae" d="M 55.5,49.5 C 55.5,51.1667 55.5,52.8333 55.5,54.5C 44.3206,54.8279 33.3206,54.4946 22.5,53.5C 23.4888,50.0649 25.8222,48.7315 29.5,49.5C 31.6413,49.6132 33.4747,50.2799 35,51.5C 35.7504,50.8742 36.5838,50.3742 37.5,50C 43.4908,49.5005 49.4908,49.3338 55.5,49.5 Z"/></g>
<g><path style="opacity:1" fill="#909eaa" d="M 56.5,50.5 C 57.8333,50.5 59.1667,50.5 60.5,50.5C 60.5,51.8333 60.5,53.1667 60.5,54.5C 59.1667,54.5 57.8333,54.5 56.5,54.5C 56.5,53.1667 56.5,51.8333 56.5,50.5 Z"/></g>
<g><path style="opacity:1" fill="#b0b9c2" d="M 56.5,50.5 C 56.5,50.1667 56.5,49.8333 56.5,49.5C 58.1667,49.5 59.8333,49.5 61.5,49.5C 61.5,53.8333 61.5,58.1667 61.5,62.5C 60.5318,60.3926 60.1984,58.0593 60.5,55.5C 59.1667,55.5 57.8333,55.5 56.5,55.5C 56.5,55.1667 56.5,54.8333 56.5,54.5C 57.8333,54.5 59.1667,54.5 60.5,54.5C 60.5,53.1667 60.5,51.8333 60.5,50.5C 59.1667,50.5 57.8333,50.5 56.5,50.5 Z"/></g>
<g><path style="opacity:1" fill="#93a0ac" d="M 99.5,54.5 C 90.5,54.5 81.5,54.5 72.5,54.5C 72.5,53.1667 72.5,51.8333 72.5,50.5C 73.8333,50.5 75.1667,50.5 76.5,50.5C 76.3453,53.8531 77.0119,54.1864 78.5,51.5C 78.9175,50.7784 79.5842,50.2784 80.5,50C 86.8246,49.5005 93.1579,49.3338 99.5,49.5C 99.5,51.1667 99.5,52.8333 99.5,54.5 Z"/></g>
<g><path style="opacity:1" fill="#d7dbe0" d="M 102.5,49.5 C 104.252,49.4176 105.252,50.2509 105.5,52C 103.833,55.3333 102.167,55.3333 100.5,52C 101.056,50.9889 101.722,50.1556 102.5,49.5 Z"/></g>
<g><path style="opacity:1" fill="#d2d7dc" d="M 55.5,49.5 C 55.8333,49.5 56.1667,49.5 56.5,49.5C 56.5,49.8333 56.5,50.1667 56.5,50.5C 56.5,51.8333 56.5,53.1667 56.5,54.5C 56.5,54.8333 56.5,55.1667 56.5,55.5C 56.8404,57.5476 56.5071,58.5476 55.5,58.5C 55.5,57.5 55.5,56.5 55.5,55.5C 49.9738,55.1786 44.6405,55.5119 39.5,56.5C 36.1667,56.5 32.8333,56.5 29.5,56.5C 29.5,60.5 29.5,64.5 29.5,68.5C 29.1349,63.9063 28.1349,59.573 26.5,55.5C 24.8333,55.5 23.1667,55.5 21.5,55.5C 21.3284,54.5084 21.6618,53.8417 22.5,53.5C 33.3206,54.4946 44.3206,54.8279 55.5,54.5C 55.5,52.8333 55.5,51.1667 55.5,49.5 Z"/></g>
<g><path style="opacity:1" fill="#98a4b0" d="M 21.5,55.5 C 23.1667,55.5 24.8333,55.5 26.5,55.5C 24.1783,59.4725 21.845,63.4725 19.5,67.5C 17.2351,68.6474 14.9018,68.8141 12.5,68C 15.3632,63.6521 18.3632,59.4854 21.5,55.5 Z"/></g>
<g><path style="opacity:1" fill="#f4f5f7" d="M 39.5,56.5 C 44.6405,55.5119 49.9738,55.1786 55.5,55.5C 55.5,56.5 55.5,57.5 55.5,58.5C 50.2892,57.1849 44.9559,56.5182 39.5,56.5 Z"/></g>
<g><path style="opacity:1" fill="#95a2ae" d="M 56.5,55.5 C 57.8333,55.5 59.1667,55.5 60.5,55.5C 60.1984,58.0593 60.5318,60.3926 61.5,62.5C 64.8333,63.8333 68.1667,63.8333 71.5,62.5C 72.4614,60.7354 72.7947,58.7354 72.5,56.5C 73.8333,56.5 75.1667,56.5 76.5,56.5C 76.5,58.8333 76.5,61.1667 76.5,63.5C 82.69,63.8229 88.69,63.4896 94.5,62.5C 89.0646,61.4897 83.7313,60.1564 78.5,58.5C 77.3398,56.7973 78.0065,56.1307 80.5,56.5C 85.8437,56.334 91.1771,56.5006 96.5,57C 100.478,60.6226 100.478,64.1226 96.5,67.5C 90.1667,67.5 83.8333,67.5 77.5,67.5C 77.6547,64.1469 76.9881,63.8136 75.5,66.5C 75.0825,67.2216 74.4158,67.7216 73.5,68C 68.8333,68.6667 64.1667,68.6667 59.5,68C 58.3333,66.8333 57.1667,65.6667 56,64.5C 55.5348,65.9308 54.7014,67.0975 53.5,68C 45.5069,68.4997 37.5069,68.6664 29.5,68.5C 29.5,64.5 29.5,60.5 29.5,56.5C 32.8333,56.5 36.1667,56.5 39.5,56.5C 44.9559,56.5182 50.2892,57.1849 55.5,58.5C 56.5071,58.5476 56.8404,57.5476 56.5,55.5 Z"/></g>
<g><path style="opacity:1" fill="#f9f9fa" d="M 78.5,58.5 C 83.7313,60.1564 89.0646,61.4897 94.5,62.5C 88.8333,62.5 83.1667,62.5 77.5,62.5C 77.2322,60.901 77.5655,59.5676 78.5,58.5 Z"/></g>
<g><path style="opacity:1" fill="#eff1f3" d="M 34.5,58.5 C 40.0497,60.075 45.7164,61.4083 51.5,62.5C 45.8722,63.4954 40.2055,63.8288 34.5,63.5C 34.5,61.8333 34.5,60.1667 34.5,58.5 Z"/></g>
<g><path style="opacity:1" fill="#d1d6db" d="M 78.5,51.5 C 77.0119,54.1864 76.3453,53.8531 76.5,50.5C 75.1667,50.5 73.8333,50.5 72.5,50.5C 72.5,51.8333 72.5,53.1667 72.5,54.5C 81.5,54.5 90.5,54.5 99.5,54.5C 93.1667,55.1667 86.8333,55.8333 80.5,56.5C 78.0065,56.1307 77.3398,56.7973 78.5,58.5C 77.5655,59.5676 77.2322,60.901 77.5,62.5C 83.1667,62.5 88.8333,62.5 94.5,62.5C 88.69,63.4896 82.69,63.8229 76.5,63.5C 76.5,61.1667 76.5,58.8333 76.5,56.5C 75.1667,56.5 73.8333,56.5 72.5,56.5C 72.7947,58.7354 72.4614,60.7354 71.5,62.5C 71.5,58.1667 71.5,53.8333 71.5,49.5C 74.2108,49.1849 76.5441,49.8516 78.5,51.5 Z"/></g>
<g><path style="opacity:1" fill="#b2bbc4" d="M 96.5,67.5 C 93.3509,68.1651 90.0175,68.4984 86.5,68.5C 82.5732,68.4196 78.9065,67.7529 75.5,66.5C 76.9881,63.8136 77.6547,64.1469 77.5,67.5C 83.8333,67.5 90.1667,67.5 96.5,67.5 Z"/></g>
</svg>
