<?xml version="1.0" encoding="UTF-8"?>
<!DOCTYPE svg PUBLIC "-//W3C//DTD SVG 1.1//EN" "http://www.w3.org/Graphics/SVG/1.1/DTD/svg11.dtd">
<svg xmlns="http://www.w3.org/2000/svg" version="1.1" width="120px" height="120px" style="shape-rendering:geometricPrecision; text-rendering:geometricPrecision; image-rendering:optimizeQuality; fill-rule:evenodd; clip-rule:evenodd" xmlns:xlink="http://www.w3.org/1999/xlink">
<g><path style="opacity:0.998" fill="#fefefe" d="M 3.5,-0.5 C 40.8333,-0.5 78.1667,-0.5 115.5,-0.5C 117.167,0.5 118.5,1.83333 119.5,3.5C 119.5,40.8333 119.5,78.1667 119.5,115.5C 118.5,117.167 117.167,118.5 115.5,119.5C 78.1667,119.5 40.8333,119.5 3.5,119.5C 1.83333,118.5 0.5,117.167 -0.5,115.5C -0.5,78.1667 -0.5,40.8333 -0.5,3.5C 0.5,1.83333 1.83333,0.5 3.5,-0.5 Z"/></g>
<g><path style="opacity:1" fill="#99a5b1" d="M 13.5,61.5 C 9.28108,59.4593 8.61441,56.6259 11.5,53C 13.5,52.3333 15.5,52.3333 17.5,53C 18.3366,54.0113 18.67,55.1779 18.5,56.5C 16.857,56.5198 15.5237,55.8532 14.5,54.5C 14.1667,55 13.8333,55.5 13.5,56C 15.2096,57.6111 17.0429,59.1111 19,60.5C 19.4859,65.9919 16.9859,67.8253 11.5,66C 9.96317,64.8904 9.2965,63.3904 9.5,61.5C 10.8333,61.5 12.1667,61.5 13.5,61.5 Z"/></g>
<g><path style="opacity:1" fill="#96a2af" d="M 57.5,52.5 C 59.8568,52.3367 62.1902,52.5034 64.5,53C 65.3366,54.0113 65.67,55.1779 65.5,56.5C 63.6096,56.7035 62.1096,56.0368 61,54.5C 60.8333,55 60.6667,55.5 60.5,56C 61.697,57.5199 63.197,58.6866 65,59.5C 66.1875,65.6758 63.6875,67.8425 57.5,66C 56.6634,64.9887 56.33,63.8221 56.5,62.5C 58.5116,63.0138 60.5116,63.1805 62.5,63C 60.7585,61.3804 58.9252,59.8804 57,58.5C 56.3224,56.4024 56.4891,54.4024 57.5,52.5 Z"/></g>
<g><path style="opacity:1" fill="#9ba7b3" d="M 101.5,52.5 C 104.908,51.828 107.575,52.828 109.5,55.5C 107.602,56.7345 105.935,56.4011 104.5,54.5C 103.167,57.5 103.167,60.5 104.5,63.5C 105.645,62.2243 105.645,60.891 104.5,59.5C 106.045,58.5481 107.712,58.2148 109.5,58.5C 110.501,65.0001 107.835,67.5001 101.5,66C 98.8665,61.5009 98.8665,57.0009 101.5,52.5 Z"/></g>
<g><path style="opacity:1" fill="#9ca7b3" d="M 24.5,52.5 C 26.8333,52.5 29.1667,52.5 31.5,52.5C 32.0373,57.1863 32.704,61.853 33.5,66.5C 32.1667,66.5 30.8333,66.5 29.5,66.5C 28.5026,53.177 27.5026,53.177 26.5,66.5C 25.1667,66.5 23.8333,66.5 22.5,66.5C 23.7957,61.938 24.4624,57.2714 24.5,52.5 Z"/></g>
<g><path style="opacity:1" fill="#96a2ae" d="M 51.5,52.5 C 51.8256,56.8839 51.4922,61.2172 50.5,65.5C 49.8243,64.3984 49.1577,63.3984 48.5,62.5C 48.6602,60.8008 48.4935,59.1341 48,57.5C 47.4978,60.5131 46.9978,63.5131 46.5,66.5C 45.1667,66.5 43.8333,66.5 42.5,66.5C 41.1925,53.2568 40.5258,53.2568 40.5,66.5C 39.5,66.5 38.5,66.5 37.5,66.5C 37.5,61.8333 37.5,57.1667 37.5,52.5C 39.5,52.5 41.5,52.5 43.5,52.5C 44.6304,61.6354 45.2971,61.6354 45.5,52.5C 47.5,52.5 49.5,52.5 51.5,52.5 Z"/></g>
<g><path style="opacity:1" fill="#9da8b4" d="M 70.5,52.5 C 71.8333,52.5 73.1667,52.5 74.5,52.5C 74.8333,67.1667 75.1667,67.1667 75.5,52.5C 76.8333,52.5 78.1667,52.5 79.5,52.5C 79.8256,56.8839 79.4922,61.2172 78.5,65.5C 75.9665,66.7883 73.4665,66.7883 71,65.5C 70.501,61.1794 70.3343,56.8461 70.5,52.5 Z"/></g>
<g><path style="opacity:1" fill="#98a4b0" d="M 95.5,52.5 C 95.5,56.8333 95.5,61.1667 95.5,65.5C 94.1667,65.5 92.8333,65.5 91.5,65.5C 89.1007,58.6892 88.1007,59.0225 88.5,66.5C 87.1667,66.5 85.8333,66.5 84.5,66.5C 84.5,61.8333 84.5,57.1667 84.5,52.5C 89.1299,52.3525 91.6299,54.6858 92,59.5C 92.4966,57.1902 92.6633,54.8568 92.5,52.5C 93.5,52.5 94.5,52.5 95.5,52.5 Z"/></g>
<g><path style="opacity:1" fill="#bac1ca" d="M 95.5,52.5 C 96.4861,56.97 96.8195,61.6367 96.5,66.5C 94.5853,66.7845 92.9187,66.4511 91.5,65.5C 92.8333,65.5 94.1667,65.5 95.5,65.5C 95.5,61.1667 95.5,56.8333 95.5,52.5 Z"/></g>
<g><path style="opacity:1" fill="#f6f7f8" d="M 13.5,61.5 C 15.337,61.6395 15.6704,62.3061 14.5,63.5C 13.7025,63.0431 13.3691,62.3764 13.5,61.5 Z"/></g>
<g><path style="opacity:1" fill="#b7bfc8" d="M 51.5,52.5 C 52.4861,56.97 52.8195,61.6367 52.5,66.5C 51.1667,66.5 49.8333,66.5 48.5,66.5C 48.5,65.1667 48.5,63.8333 48.5,62.5C 49.1577,63.3984 49.8243,64.3984 50.5,65.5C 51.4922,61.2172 51.8256,56.8839 51.5,52.5 Z"/></g>
</svg>
