<?xml version="1.0" encoding="UTF-8"?>
<!DOCTYPE svg PUBLIC "-//W3C//DTD SVG 1.1//EN" "http://www.w3.org/Graphics/SVG/1.1/DTD/svg11.dtd">
<svg xmlns="http://www.w3.org/2000/svg" version="1.1" width="120px" height="120px" style="shape-rendering:geometricPrecision; text-rendering:geometricPrecision; image-rendering:optimizeQuality; fill-rule:evenodd; clip-rule:evenodd" xmlns:xlink="http://www.w3.org/1999/xlink">
<g><path style="opacity:0.998" fill="#fefefe" d="M 3.5,-0.5 C 40.8333,-0.5 78.1667,-0.5 115.5,-0.5C 117.167,0.5 118.5,1.83333 119.5,3.5C 119.5,40.8333 119.5,78.1667 119.5,115.5C 118.5,117.167 117.167,118.5 115.5,119.5C 78.1667,119.5 40.8333,119.5 3.5,119.5C 1.83333,118.5 0.5,117.167 -0.5,115.5C -0.5,78.1667 -0.5,40.8333 -0.5,3.5C 0.5,1.83333 1.83333,0.5 3.5,-0.5 Z"/></g>
<g><path style="opacity:1" fill="#9ba6b2" d="M 17.5,50.5 C 21.2154,50.1961 24.7154,50.8627 28,52.5C 28.414,52.0426 28.914,51.7093 29.5,51.5C 30.8333,53.1667 30.8333,54.8333 29.5,56.5C 25.4861,52.2351 21.1527,51.7351 16.5,55C 20.99,56.7545 25.6567,58.0879 30.5,59C 31.5762,60.7261 31.7429,62.5594 31,64.5C 26.3773,67.9942 21.5439,68.3275 16.5,65.5C 15.2638,66.2458 13.9305,66.5792 12.5,66.5C 12.5,64.8333 12.5,63.1667 12.5,61.5C 15.3947,63.1965 18.5614,64.1965 22,64.5C 24.0507,64.5771 25.884,64.0771 27.5,63C 23.7661,61.1749 19.7661,60.1749 15.5,60C 13.2031,58.7367 12.3698,56.9034 13,54.5C 14.3968,52.9297 15.8968,51.5964 17.5,50.5 Z"/></g>
<g><path style="opacity:1" fill="#9aa6b2" d="M 41.5,50.5 C 46.1209,49.9927 50.4542,50.826 54.5,53C 57.8645,56.0262 58.3645,59.5262 56,63.5C 52.958,65.8892 49.458,66.8892 45.5,66.5C 37.8299,67.3276 34.3299,63.9943 35,56.5C 36.4936,53.6865 38.6603,51.6865 41.5,50.5 Z"/></g>
<g><path style="opacity:1" fill="#95a2ae" d="M 58.5,51.5 C 61.1873,51.3359 63.854,51.5026 66.5,52C 69.0159,54.6833 71.6826,57.1833 74.5,59.5C 75.4656,57.604 75.7989,55.604 75.5,53.5C 74.325,53.719 73.325,53.3857 72.5,52.5C 75.5,51.1667 78.5,51.1667 81.5,52.5C 80.675,53.3857 79.675,53.719 78.5,53.5C 78.5,57.8333 78.5,62.1667 78.5,66.5C 77.1266,66.6567 75.7932,66.49 74.5,66C 71.3333,62.8333 68.1667,59.6667 65,56.5C 64.5026,59.146 64.3359,61.8127 64.5,64.5C 65.675,64.281 66.675,64.6143 67.5,65.5C 64.5,66.8333 61.5,66.8333 58.5,65.5C 59.325,64.6143 60.325,64.281 61.5,64.5C 61.5,60.8333 61.5,57.1667 61.5,53.5C 59.8212,53.7148 58.8212,53.0481 58.5,51.5 Z"/></g>
<g><path style="opacity:1" fill="#97a4b0" d="M 83.5,51.5 C 86.8984,51.1796 90.2317,51.513 93.5,52.5C 92.9747,53.1924 92.3081,53.6924 91.5,54C 92.6667,55.1667 93.8333,56.3333 95,57.5C 96.1667,56.3333 97.3333,55.1667 98.5,54C 98.0426,53.586 97.7093,53.086 97.5,52.5C 100.167,51.1667 102.833,51.1667 105.5,52.5C 100.16,54.8281 97.1605,58.8281 96.5,64.5C 97.675,64.281 98.675,64.6143 99.5,65.5C 95.8333,66.8333 92.1667,66.8333 88.5,65.5C 89.325,64.6143 90.325,64.281 91.5,64.5C 91.6602,62.8008 91.4935,61.1341 91,59.5C 88.6876,56.4415 86.1876,53.7749 83.5,51.5 Z"/></g>
<g><path style="opacity:1" fill="#f8f9fa" d="M 43.5,52.5 C 48.7134,51.7617 51.7134,53.9284 52.5,59C 51.0886,64.1409 47.7553,65.8075 42.5,64C 38.4463,59.7727 38.7796,55.9394 43.5,52.5 Z"/></g>
</svg>
