<?xml version="1.0" encoding="UTF-8"?>
<!DOCTYPE svg PUBLIC "-//W3C//DTD SVG 1.1//EN" "http://www.w3.org/Graphics/SVG/1.1/DTD/svg11.dtd">
<svg xmlns="http://www.w3.org/2000/svg" version="1.1" width="120px" height="120px" style="shape-rendering:geometricPrecision; text-rendering:geometricPrecision; image-rendering:optimizeQuality; fill-rule:evenodd; clip-rule:evenodd" xmlns:xlink="http://www.w3.org/1999/xlink">
<g><path style="opacity:0.998" fill="#fefefe" d="M 3.5,-0.5 C 40.8333,-0.5 78.1667,-0.5 115.5,-0.5C 117.167,0.5 118.5,1.83333 119.5,3.5C 119.5,40.8333 119.5,78.1667 119.5,115.5C 118.5,117.167 117.167,118.5 115.5,119.5C 78.1667,119.5 40.8333,119.5 3.5,119.5C 1.83333,118.5 0.5,117.167 -0.5,115.5C -0.5,78.1667 -0.5,40.8333 -0.5,3.5C 0.5,1.83333 1.83333,0.5 3.5,-0.5 Z"/></g>
<g><path style="opacity:1" fill="#b7c0c8" d="M 46.5,51.5 C 43.9407,51.1984 41.6074,51.5318 39.5,52.5C 38.9569,52.44 38.6236,52.1067 38.5,51.5C 41.3092,50.1997 43.9759,50.1997 46.5,51.5 Z"/></g>
<g><path style="opacity:1" fill="#d3d7de" d="M 12.5,51.5 C 13.209,50.596 14.209,50.2627 15.5,50.5C 15.5,55.1667 15.5,59.8333 15.5,64.5C 15.1349,59.9063 14.1349,55.573 12.5,51.5 Z"/></g>
<g><path style="opacity:1" fill="#d2d8dd" d="M 24.5,51.5 C 22.8651,55.573 21.8651,59.9063 21.5,64.5C 21.5,59.8333 21.5,55.1667 21.5,50.5C 22.791,50.2627 23.791,50.596 24.5,51.5 Z"/></g>
<g><path style="opacity:1" fill="#98a4b0" d="M 12.5,51.5 C 14.1349,55.573 15.1349,59.9063 15.5,64.5C 17.5,67.1667 19.5,67.1667 21.5,64.5C 21.8651,59.9063 22.8651,55.573 24.5,51.5C 24.3342,56.1785 24.5008,60.8452 25,65.5C 27,66.8333 29,66.8333 31,65.5C 31.4992,60.8452 31.6658,56.1785 31.5,51.5C 33.4302,55.3727 34.0969,59.706 33.5,64.5C 32.7585,67.1381 30.9251,68.4714 28,68.5C 23.8661,67.904 19.6994,67.7373 15.5,68C 14.6667,67.1667 13.8333,66.3333 13,65.5C 12.5008,60.8452 12.3342,56.1785 12.5,51.5 Z"/></g>
<g><path style="opacity:1" fill="#c8ced5" d="M 31.5,51.5 C 32.209,50.596 33.209,50.2627 34.5,50.5C 34.8195,55.3633 34.4861,60.03 33.5,64.5C 34.0969,59.706 33.4302,55.3727 31.5,51.5 Z"/></g>
<g><path style="opacity:1" fill="#a0abb6" d="M 70.5,50.5 C 81.8993,49.4173 85.7326,54.4173 82,65.5C 80.5374,67.8853 78.3708,68.8853 75.5,68.5C 69.3915,68.6366 66.7249,65.6366 67.5,59.5C 67.1402,55.9904 68.1402,52.9904 70.5,50.5 Z"/></g>
<g><path style="opacity:1" fill="#a0abb6" d="M 88.5,50.5 C 91.2724,50.22 93.7724,50.8866 96,52.5C 99.0676,49.9981 102.234,49.9981 105.5,52.5C 106.786,57.811 106.786,63.1444 105.5,68.5C 104.672,63.8685 104.172,59.2018 104,54.5C 101.959,53.5769 99.7925,53.2436 97.5,53.5C 97.5,58.5 97.5,63.5 97.5,68.5C 96.5,68.5 95.5,68.5 94.5,68.5C 94.5,63.5 94.5,58.5 94.5,53.5C 92.2075,53.2436 90.0408,53.5769 88,54.5C 87.8283,59.2018 87.3283,63.8685 86.5,68.5C 85.3377,63.533 85.1711,58.533 86,53.5C 87.045,52.6266 87.8783,51.6266 88.5,50.5 Z"/></g>
<g><path style="opacity:1" fill="#9ea9b5" d="M 46.5,51.5 C 48.0174,51.5106 49.1841,52.1772 50,53.5C 54.1762,66.3181 50.0095,70.8181 37.5,67C 34.7842,59.5391 37.4509,56.3724 45.5,57.5C 45.5,58.5 45.5,59.5 45.5,60.5C 43.1667,60.5 40.8333,60.5 38.5,60.5C 38.1464,66.2038 40.813,68.0371 46.5,66C 47,65.5 47.5,65 48,64.5C 48.6667,61.1667 48.6667,57.8333 48,54.5C 45.0614,53.8719 42.2281,53.2052 39.5,52.5C 41.6074,51.5318 43.9407,51.1984 46.5,51.5 Z"/></g>
<g><path style="opacity:1" fill="#9aa5b2" d="M 56.5,50.5 C 69.738,51.4323 69.738,52.599 56.5,54C 55.8729,55.7378 55.5396,57.5711 55.5,59.5C 55.4764,66.2643 58.6431,68.2643 65,65.5C 66.487,66.2529 66.6537,67.0862 65.5,68C 54.1513,69.6263 50.318,64.793 54,53.5C 55.045,52.6266 55.8783,51.6266 56.5,50.5 Z"/></g>
<g><path style="opacity:1" fill="#fbfcfc" d="M 70.5,53.5 C 73.7766,53.2161 76.9433,53.5495 80,54.5C 80.6667,57.8333 80.6667,61.1667 80,64.5C 77.24,66.703 74.24,67.0363 71,65.5C 70.5012,61.5138 70.3345,57.5138 70.5,53.5 Z"/></g>
</svg>
