<?xml version="1.0" encoding="UTF-8"?>
<!DOCTYPE svg PUBLIC "-//W3C//DTD SVG 1.1//EN" "http://www.w3.org/Graphics/SVG/1.1/DTD/svg11.dtd">
<svg xmlns="http://www.w3.org/2000/svg" version="1.1" width="120px" height="120px" style="shape-rendering:geometricPrecision; text-rendering:geometricPrecision; image-rendering:optimizeQuality; fill-rule:evenodd; clip-rule:evenodd" xmlns:xlink="http://www.w3.org/1999/xlink">
<g><path style="opacity:0.998" fill="#fefefe" d="M 3.5,-0.5 C 40.8333,-0.5 78.1667,-0.5 115.5,-0.5C 117.167,0.5 118.5,1.83333 119.5,3.5C 119.5,40.8333 119.5,78.1667 119.5,115.5C 118.5,117.167 117.167,118.5 115.5,119.5C 78.1667,119.5 40.8333,119.5 3.5,119.5C 1.83333,118.5 0.5,117.167 -0.5,115.5C -0.5,78.1667 -0.5,40.8333 -0.5,3.5C 0.5,1.83333 1.83333,0.5 3.5,-0.5 Z"/></g>
<g><path style="opacity:1" fill="#97a3af" d="M 35.5,44.5 C 45.9377,44.0488 56.271,44.5488 66.5,46C 68.0488,47.214 69.2155,48.714 70,50.5C 70.4997,58.8267 70.6664,67.16 70.5,75.5C 67.8333,75.5 65.1667,75.5 62.5,75.5C 62.8004,67.7767 62.4671,60.1101 61.5,52.5C 60.9747,51.8076 60.3081,51.3076 59.5,51C 54.1771,50.5006 48.8437,50.334 43.5,50.5C 43.5,58.8333 43.5,67.1667 43.5,75.5C 40.8333,75.5 38.1667,75.5 35.5,75.5C 35.5,65.1667 35.5,54.8333 35.5,44.5 Z"/></g>
<g><path style="opacity:1" fill="#939fac" d="M 76.5,44.5 C 78.8333,44.5 81.1667,44.5 83.5,44.5C 83.5,54.8333 83.5,65.1667 83.5,75.5C 81.1667,75.5 78.8333,75.5 76.5,75.5C 76.5,65.1667 76.5,54.8333 76.5,44.5 Z"/></g>
<g><path style="opacity:1" fill="#919eab" d="M 49.5,56.5 C 51.8333,56.5 54.1667,56.5 56.5,56.5C 56.5,62.8333 56.5,69.1667 56.5,75.5C 54.1667,75.5 51.8333,75.5 49.5,75.5C 49.5,69.1667 49.5,62.8333 49.5,56.5 Z"/></g>
</svg>
